<svg width="519" height="205" viewBox="0 0 519 205" fill="none" xmlns="http://www.w3.org/2000/svg">
<path d="M379.938 17.103C380.953 17.0702 381.968 17.0373 383.014 17.0034C385.763 16.9834 388.297 17.0371 391 17.5405C393.055 19.7124 393.055 19.7124 394 22.5405C394.385 23.4725 394.771 24.4045 395.168 25.3648C395.504 26.3096 395.841 27.2545 396.188 28.228C396.532 29.1807 396.876 30.1333 397.23 31.1148C398 33.5405 398 33.5405 398 35.5405C398.825 35.7674 399.65 35.9943 400.5 36.228C404 37.5405 404 37.5405 405.617 38.8921C407.773 40.6842 409.302 41.6897 412 42.5405C415.548 42.0673 418.851 41.4357 422.277 40.4226C424.293 39.8843 424.293 39.8843 428 39.5405C430.66 41.6109 430.66 41.6109 433 44.5405C433.871 45.4145 434.743 46.2885 435.641 47.189C436.502 48.0887 437.363 48.9885 438.25 49.9155C439.121 50.8102 439.993 51.7048 440.891 52.6265C443.427 56.1309 444.019 58.2246 444 62.5405C442.531 65.4546 442.531 65.4546 440.5 68.1655C437.661 71.7409 437.661 71.7409 437.152 76.0601C438.327 79.4987 439.717 82.8051 441.16 86.1382C442 88.5405 442 88.5405 442 92.5405C442.82 92.7223 443.64 92.9041 444.484 93.0913C445.562 93.3427 446.64 93.5941 447.75 93.853C448.817 94.0967 449.885 94.3403 450.984 94.5913C454.088 95.5683 455.707 96.2574 458 98.5405C458.454 101.36 458.454 101.36 458.391 104.74C458.378 105.948 458.365 107.157 458.352 108.402C458.318 109.665 458.285 110.927 458.25 112.228C458.232 113.502 458.214 114.777 458.195 116.089C458.148 119.241 458.082 122.39 458 125.541C456.598 126.198 455.192 126.848 453.785 127.494C452.612 128.037 452.612 128.037 451.414 128.592C447.927 129.962 444.725 130.27 441 130.541C440.917 131.324 440.835 132.108 440.75 132.916C440.085 136.129 439.18 138.561 437.875 141.541C436.167 145.744 435.436 148.124 437 152.541C438.297 155.117 439.622 157.66 441.039 160.173C442 162.541 442 162.541 441.918 164.505C440.61 167.406 438.742 169.554 436.688 171.978C435.908 172.905 435.128 173.832 434.324 174.787C433.557 175.695 432.79 176.604 432 177.541C431.309 178.458 430.618 179.376 429.906 180.322C428 182.541 428 182.541 424.812 183.603C420.475 183.532 418.039 182.434 414.309 180.353C410.113 178.877 406.838 180.17 402.895 181.916C401.877 182.452 400.86 182.988 399.812 183.541C396.864 185.083 394.158 186.488 391 187.541C390.009 190.032 389.187 192.416 388.438 194.978C386.242 202.299 386.242 202.299 384 204.541C380.374 204.993 376.714 204.865 373.062 204.853C372.047 204.869 371.032 204.885 369.986 204.902C368.525 204.903 368.525 204.903 367.035 204.904C366.142 204.907 365.249 204.91 364.328 204.913C361.517 204.463 360.7 203.785 359 201.541C357.737 198.597 356.581 195.653 355.514 192.634C354.103 189.025 353.164 187.64 349.801 185.603C348.877 185.252 347.952 184.902 347 184.541C347 180.911 347 177.281 347 173.541C349.587 174.268 349.587 174.268 352.227 175.009C358.677 176.614 364.746 177.081 371.375 177.041C372.466 177.036 373.558 177.031 374.682 177.025C383.35 176.838 390.218 175.559 398 171.541C398.905 171.083 399.81 170.625 400.742 170.154C417.12 161.069 426.196 146.645 431.422 129.025C436.194 108.519 432.486 86.7961 421.75 68.853C411.424 53.3867 396.822 45.49 379 41.5405C377.487 41.3993 375.971 41.2959 374.453 41.2241C373.609 41.1822 372.764 41.1403 371.895 41.0972C371.022 41.0579 370.149 41.0186 369.25 40.978C367.918 40.9133 367.918 40.9133 366.559 40.8472C364.373 40.7414 362.186 40.6393 360 40.5405C360.623 35.5845 362.06 31.373 363.938 26.7905C364.202 26.1189 364.467 25.4473 364.74 24.7554C368.13 16.3606 371.611 17.1504 379.938 17.103Z" fill="#333E43"/>
<path d="M41.0909 124H8.09091V30.9091H41.3636C50.7273 30.9091 58.7879 32.7727 65.5455 36.5C72.303 40.197 77.5 45.5151 81.1364 52.4545C84.803 59.3939 86.6364 67.697 86.6364 77.3636C86.6364 87.0606 84.803 95.3939 81.1364 102.364C77.5 109.333 72.2727 114.682 65.4545 118.409C58.6667 122.136 50.5455 124 41.0909 124ZM27.7727 107.136H40.2727C46.0909 107.136 50.9848 106.106 54.9545 104.045C58.9545 101.955 61.9545 98.7273 63.9545 94.3636C65.9848 89.9697 67 84.303 67 77.3636C67 70.4848 65.9848 64.8636 63.9545 60.5C61.9545 56.1364 58.9697 52.9242 55 50.8636C51.0303 48.803 46.1364 47.7727 40.3182 47.7727H27.7727V107.136ZM120.761 125.318C116.307 125.318 112.337 124.545 108.852 123C105.367 121.424 102.61 119.106 100.58 116.045C98.5795 112.955 97.5795 109.106 97.5795 104.5C97.5795 100.621 98.2917 97.3636 99.7159 94.7273C101.14 92.0909 103.08 89.9697 105.534 88.3636C107.989 86.7576 110.777 85.5455 113.898 84.7273C117.049 83.9091 120.352 83.3333 123.807 83C127.867 82.5758 131.14 82.1818 133.625 81.8182C136.11 81.4242 137.913 80.8485 139.034 80.0909C140.155 79.3333 140.716 78.2121 140.716 76.7273V76.4545C140.716 73.5758 139.807 71.3485 137.989 69.7727C136.201 68.197 133.655 67.4091 130.352 67.4091C126.867 67.4091 124.095 68.1818 122.034 69.7273C119.973 71.2424 118.61 73.1515 117.943 75.4545L100.034 74C100.943 69.7576 102.731 66.0909 105.398 63C108.064 59.8788 111.504 57.4848 115.716 55.8182C119.958 54.1212 124.867 53.2727 130.443 53.2727C134.322 53.2727 138.034 53.7273 141.58 54.6364C145.155 55.5455 148.322 56.9545 151.08 58.8636C153.867 60.7727 156.064 63.2273 157.67 66.2273C159.277 69.197 160.08 72.7576 160.08 76.9091V124H141.716V114.318H141.17C140.049 116.5 138.549 118.424 136.67 120.091C134.792 121.727 132.534 123.015 129.898 123.955C127.261 124.864 124.216 125.318 120.761 125.318ZM126.307 111.955C129.155 111.955 131.67 111.394 133.852 110.273C136.034 109.121 137.746 107.576 138.989 105.636C140.231 103.697 140.852 101.5 140.852 99.0455V91.6364C140.246 92.0303 139.413 92.3939 138.352 92.7273C137.322 93.0303 136.155 93.3182 134.852 93.5909C133.549 93.8333 132.246 94.0606 130.943 94.2727C129.64 94.4545 128.458 94.6212 127.398 94.7727C125.125 95.1061 123.14 95.6364 121.443 96.3636C119.746 97.0909 118.428 98.0758 117.489 99.3182C116.549 100.53 116.08 102.045 116.08 103.864C116.08 106.5 117.034 108.515 118.943 109.909C120.883 111.273 123.337 111.955 126.307 111.955ZM212.239 54.1818V68.7273H170.193V54.1818H212.239ZM179.739 37.4545H199.102V102.545C199.102 104.333 199.375 105.727 199.92 106.727C200.466 107.697 201.223 108.379 202.193 108.773C203.193 109.167 204.345 109.364 205.648 109.364C206.557 109.364 207.466 109.288 208.375 109.136C209.284 108.955 209.981 108.818 210.466 108.727L213.511 123.136C212.542 123.439 211.178 123.788 209.42 124.182C207.663 124.606 205.527 124.864 203.011 124.955C198.345 125.136 194.254 124.515 190.739 123.091C187.254 121.667 184.542 119.455 182.602 116.455C180.663 113.455 179.708 109.667 179.739 105.091V37.4545ZM269.625 94.2727V54.1818H288.989V124H270.398V111.318H269.67C268.095 115.409 265.473 118.697 261.807 121.182C258.17 123.667 253.731 124.909 248.489 124.909C243.822 124.909 239.716 123.848 236.17 121.727C232.625 119.606 229.852 116.591 227.852 112.682C225.883 108.773 224.883 104.091 224.852 98.6364V54.1818H244.216V95.1818C244.246 99.303 245.352 102.561 247.534 104.955C249.716 107.348 252.64 108.545 256.307 108.545C258.64 108.545 260.822 108.015 262.852 106.955C264.883 105.864 266.519 104.258 267.761 102.136C269.034 100.015 269.655 97.3939 269.625 94.2727ZM304.477 124V54.1818H322.932V66.5H323.75C325.205 62.4091 327.629 59.1818 331.023 56.8182C334.417 54.4545 338.477 53.2727 343.205 53.2727C347.992 53.2727 352.068 54.4697 355.432 56.8636C358.795 59.2273 361.038 62.4394 362.159 66.5H362.886C364.311 62.5 366.886 59.303 370.614 56.9091C374.371 54.4848 378.811 53.2727 383.932 53.2727C390.447 53.2727 395.735 55.3485 399.795 59.5C403.886 63.6212 405.932 69.4697 405.932 77.0455V124H386.614V80.8636C386.614 76.9848 385.583 74.0758 383.523 72.1364C381.462 70.197 378.886 69.2273 375.795 69.2273C372.28 69.2273 369.538 70.3485 367.568 72.5909C365.598 74.803 364.614 77.7273 364.614 81.3636V124H345.841V80.4545C345.841 77.0303 344.856 74.303 342.886 72.2727C340.947 70.2424 338.386 69.2273 335.205 69.2273C333.053 69.2273 331.114 69.7727 329.386 70.8636C327.689 71.9242 326.341 73.4242 325.341 75.3636C324.341 77.2727 323.841 79.5152 323.841 82.0909V124H304.477ZM9.0767 172L0.752841 142.909H7.47159L12.2869 163.122H12.5284L17.8409 142.909H23.5938L28.892 163.165H29.1477L33.9631 142.909H40.6818L32.358 172H26.3636L20.8239 152.98H20.5966L15.071 172H9.0767ZM69.0661 157.455C69.0661 160.627 68.4647 163.326 67.2621 165.551C66.0689 167.777 64.4401 169.476 62.3757 170.651C60.3208 171.815 58.0102 172.398 55.4439 172.398C52.8587 172.398 50.5386 171.811 48.4837 170.636C46.4287 169.462 44.8047 167.762 43.6115 165.537C42.4183 163.312 41.8217 160.617 41.8217 157.455C41.8217 154.282 42.4183 151.583 43.6115 149.358C44.8047 147.133 46.4287 145.437 48.4837 144.273C50.5386 143.098 52.8587 142.511 55.4439 142.511C58.0102 142.511 60.3208 143.098 62.3757 144.273C64.4401 145.437 66.0689 147.133 67.2621 149.358C68.4647 151.583 69.0661 154.282 69.0661 157.455ZM62.8303 157.455C62.8303 155.4 62.5225 153.667 61.907 152.256C61.3009 150.845 60.4439 149.775 59.3359 149.045C58.228 148.316 56.9306 147.952 55.4439 147.952C53.9571 147.952 52.6598 148.316 51.5518 149.045C50.4439 149.775 49.5821 150.845 48.9666 152.256C48.3606 153.667 48.0575 155.4 48.0575 157.455C48.0575 159.509 48.3606 161.242 48.9666 162.653C49.5821 164.064 50.4439 165.134 51.5518 165.864C52.6598 166.593 53.9571 166.957 55.4439 166.957C56.9306 166.957 58.228 166.593 59.3359 165.864C60.4439 165.134 61.3009 164.064 61.907 162.653C62.5225 161.242 62.8303 159.509 62.8303 157.455ZM73.6222 172V142.909H85.0994C87.2964 142.909 89.1714 143.302 90.7244 144.088C92.2869 144.865 93.4754 145.968 94.2898 147.398C95.1136 148.818 95.5256 150.49 95.5256 152.412C95.5256 154.344 95.1089 156.006 94.2756 157.398C93.4422 158.78 92.2348 159.841 90.6534 160.58C89.0814 161.318 87.178 161.688 84.9432 161.688H77.2585V156.744H83.9489C85.1231 156.744 86.0985 156.583 86.875 156.261C87.6515 155.939 88.2292 155.456 88.608 154.812C88.9962 154.169 89.1903 153.368 89.1903 152.412C89.1903 151.446 88.9962 150.632 88.608 149.969C88.2292 149.306 87.6468 148.804 86.8608 148.463C86.0843 148.113 85.1042 147.938 83.9205 147.938H79.7727V172H73.6222ZM89.3324 158.761L96.5625 172H89.7727L82.6989 158.761H89.3324ZM99.8722 172V142.909H106.023V155.736H106.406L116.875 142.909H124.247L113.452 155.935L124.375 172H117.017L109.048 160.04L106.023 163.733V172H99.8722ZM142.997 151.276C142.884 150.13 142.396 149.24 141.534 148.605C140.672 147.971 139.503 147.653 138.026 147.653C137.022 147.653 136.174 147.795 135.483 148.08C134.792 148.354 134.261 148.738 133.892 149.23C133.532 149.723 133.352 150.281 133.352 150.906C133.333 151.427 133.442 151.882 133.679 152.27C133.925 152.658 134.261 152.994 134.688 153.278C135.114 153.553 135.606 153.795 136.165 154.003C136.723 154.202 137.32 154.372 137.955 154.514L140.568 155.139C141.837 155.423 143.002 155.802 144.062 156.276C145.123 156.749 146.042 157.331 146.818 158.023C147.595 158.714 148.196 159.528 148.622 160.466C149.058 161.403 149.28 162.478 149.29 163.69C149.28 165.471 148.826 167.014 147.926 168.321C147.036 169.618 145.748 170.627 144.062 171.347C142.386 172.057 140.365 172.412 137.997 172.412C135.649 172.412 133.603 172.052 131.861 171.332C130.128 170.613 128.774 169.547 127.798 168.136C126.832 166.716 126.326 164.959 126.278 162.866H132.23C132.296 163.842 132.576 164.656 133.068 165.31C133.57 165.954 134.238 166.441 135.071 166.773C135.914 167.095 136.866 167.256 137.926 167.256C138.968 167.256 139.872 167.104 140.639 166.801C141.416 166.498 142.017 166.077 142.443 165.537C142.869 164.997 143.082 164.377 143.082 163.676C143.082 163.023 142.888 162.473 142.5 162.028C142.121 161.583 141.563 161.205 140.824 160.892C140.095 160.58 139.2 160.295 138.139 160.04L134.972 159.244C132.519 158.648 130.582 157.715 129.162 156.446C127.741 155.177 127.036 153.468 127.045 151.318C127.036 149.557 127.505 148.018 128.452 146.702C129.408 145.385 130.72 144.358 132.386 143.619C134.053 142.881 135.947 142.511 138.068 142.511C140.227 142.511 142.112 142.881 143.722 143.619C145.341 144.358 146.6 145.385 147.5 146.702C148.4 148.018 148.864 149.543 148.892 151.276H142.997Z" fill="#333E43"/>
</svg>
